<svg width="152" height="152" viewBox="0 0 152 152" fill="none" xmlns="http://www.w3.org/2000/svg">
<rect width="152" height="152" fill="#EBEBEB"/>
<path d="M89.8502 46.7995C92.5193 46.7995 94.7743 48.5194 95.623 50.8994H116.877C117.726 48.5194 119.981 46.7995 122.65 46.7995C126.041 46.7995 128.8 49.5588 128.8 52.9494C128.8 56.34 126.041 59.0993 122.65 59.0993C119.981 59.0993 117.726 57.3794 116.877 54.9994H95.6209C94.7722 57.3794 92.5172 59.0993 89.8481 59.0993C86.4574 59.0993 83.6981 56.34 83.6981 52.9494C83.6981 49.5588 86.4595 46.7995 89.8502 46.7995ZM122.65 54.9994C123.78 54.9994 124.7 54.081 124.7 52.9494C124.7 51.8178 123.78 50.8994 122.65 50.8994C121.521 50.8994 120.6 51.8178 120.6 52.9494C120.6 54.081 121.521 54.9994 122.65 54.9994ZM89.8502 54.9994C90.9797 54.9994 91.9002 54.081 91.9002 52.9494C91.9002 51.8178 90.9797 50.8994 89.8502 50.8994C88.7206 50.8994 87.8002 51.8178 87.8002 52.9494C87.8002 54.081 88.7206 54.9994 89.8502 54.9994Z" fill="#00B2FF"/>
<path d="M73.4503 59.4765V46.7995C73.4503 46.2542 73.6655 45.7335 74.0509 45.3501L82.2509 37.1503C82.6343 36.7649 83.157 36.5496 83.7003 36.5496H90.2275C91.0762 34.1696 93.3312 32.4497 96.0003 32.4497C99.391 32.4497 102.15 35.209 102.15 38.5996C102.15 41.9902 99.391 44.7495 96.0003 44.7495C93.3312 44.7495 91.0762 43.0296 90.2275 40.6496H84.549L77.5503 47.6482V59.4765C79.9303 60.3251 81.6503 62.5801 81.6503 65.2492C81.6503 68.6398 78.891 71.3991 75.5003 71.3991C72.1096 71.3991 69.3503 68.6398 69.3503 65.2492C69.3503 62.5801 71.0702 60.3251 73.4503 59.4765ZM96.0003 40.6496C97.1298 40.6496 98.0503 39.7312 98.0503 38.5996C98.0503 37.468 97.1298 36.5496 96.0003 36.5496C94.8707 36.5496 93.9503 37.468 93.9503 38.5996C93.9503 39.7312 94.8707 40.6496 96.0003 40.6496ZM75.5003 67.2991C76.6298 67.2991 77.5503 66.3807 77.5503 65.2492C77.5503 64.1176 76.6298 63.1992 75.5003 63.1992C74.3707 63.1992 73.4503 64.1176 73.4503 65.2492C73.4503 66.3807 74.3707 67.2991 75.5003 67.2991Z" fill="#00B2FF"/>
<path d="M36.55 67.2991C37.4971 67.2991 38.3827 67.5308 39.1843 67.9162L42.7 64.4005V44.7495C42.7 44.2042 42.9153 43.6835 43.3007 43.3002L63.817 22.7841C63.4316 21.9826 63.2 21.097 63.2 20.1499C63.2 16.7593 65.9593 14 69.35 14C72.7407 14 75.5 16.7593 75.5 20.1499C75.5 23.5405 72.7407 26.2998 69.35 26.2998C68.4029 26.2998 67.5173 26.0681 66.7158 25.6828L46.8 45.5982V65.2491C46.8 65.7944 46.5848 66.3151 46.1994 66.6985L42.083 70.8148C42.4684 71.6163 42.7 72.5019 42.7 73.449C42.7 76.8397 39.9407 79.5989 36.55 79.5989C33.1593 79.5989 30.4 76.8397 30.4 73.449C30.4 70.0584 33.1593 67.2991 36.55 67.2991ZM69.35 22.1999C70.4796 22.1999 71.4 21.2815 71.4 20.1499C71.4 19.0183 70.4796 18.0999 69.35 18.0999C68.2205 18.0999 67.3 19.0183 67.3 20.1499C67.3 21.2815 68.2205 22.1999 69.35 22.1999ZM36.55 75.499C37.6796 75.499 38.6 74.5806 38.6 73.449C38.6 72.3174 37.6796 71.399 36.55 71.399C35.4205 71.399 34.5 72.3174 34.5 73.449C34.5 74.5806 35.4205 75.499 36.55 75.499Z" fill="#00B2FF"/>
<path d="M18.1 43.0767V34.4997C18.1 33.9544 18.3153 33.4337 18.7007 33.0503L33.0507 18.7006C33.434 18.3152 33.9568 18.0999 34.5 18.0999H45.1272C45.9759 15.7199 48.2309 14 50.9 14C54.2907 14 57.05 16.7593 57.05 20.1499C57.05 23.5405 54.2907 26.2998 50.9 26.2998C48.2309 26.2998 45.9759 24.5799 45.1272 22.1999H35.3488L22.2 35.3483V43.0767C24.5801 43.9254 26.3 46.1804 26.3 48.8494C26.3 52.2401 23.5407 54.9993 20.15 54.9993C16.7593 54.9993 14 52.2401 14 48.8494C14 46.1804 15.72 43.9254 18.1 43.0767ZM50.9 22.1999C52.0296 22.1999 52.95 21.2815 52.95 20.1499C52.95 19.0183 52.0296 18.0999 50.9 18.0999C49.7705 18.0999 48.85 19.0183 48.85 20.1499C48.85 21.2815 49.7705 22.1999 50.9 22.1999ZM20.15 50.8994C21.2796 50.8994 22.2 49.981 22.2 48.8494C22.2 47.7178 21.2796 46.7995 20.15 46.7995C19.0205 46.7995 18.1 47.7178 18.1 48.8494C18.1 49.981 19.0205 50.8994 20.15 50.8994Z" fill="#00B2FF"/>
<path d="M46.798 125.077V95.6215C44.42 94.7728 42.7001 92.5179 42.7001 89.8488C42.7001 86.4582 45.4594 83.6989 48.8501 83.6989C51.5192 83.6989 53.7741 85.4188 54.6228 87.7988H75.8772C76.7259 85.4188 78.9809 83.6989 81.65 83.6989C84.3191 83.6989 86.5741 85.4188 87.4228 87.7988H99.2514L106.867 80.1832C106.482 79.3817 106.25 78.4961 106.25 77.549C106.25 74.1584 109.009 71.3991 112.4 71.3991C115.791 71.3991 118.55 74.1584 118.55 77.549C118.55 80.9397 115.791 83.6989 112.4 83.6989C111.453 83.6989 110.567 83.4673 109.766 83.0819L101.549 91.2981C101.166 91.6835 100.643 91.8988 100.1 91.8988H87.4228C86.5741 94.2788 84.3191 95.9987 81.65 95.9987C78.9809 95.9987 76.7259 94.2788 75.8772 91.8988H54.6208C54.0017 93.6351 52.6344 95.0024 50.898 95.6215V125.077C53.2781 125.926 54.998 128.181 54.998 130.85C54.998 134.241 52.2387 137 48.848 137C45.4573 137 42.698 134.241 42.698 130.85C42.698 128.181 44.418 125.926 46.798 125.077ZM112.4 79.599C113.53 79.599 114.45 78.6806 114.45 77.549C114.45 76.4174 113.53 75.499 112.4 75.499C111.27 75.499 110.35 76.4174 110.35 77.549C110.35 78.6806 111.27 79.599 112.4 79.599ZM81.65 91.8988C82.7796 91.8988 83.7 90.9804 83.7 89.8488C83.7 88.7172 82.7796 87.7988 81.65 87.7988C80.5205 87.7988 79.6 88.7172 79.6 89.8488C79.6 90.9804 80.5205 91.8988 81.65 91.8988ZM48.8501 132.898C49.9796 132.898 50.9001 131.98 50.9001 130.848C50.9001 129.717 49.9796 128.798 48.8501 128.798C47.7205 128.798 46.8001 129.717 46.8001 130.848C46.8001 131.98 47.7205 132.898 48.8501 132.898ZM48.8501 91.8988C49.9796 91.8988 50.9001 90.9804 50.9001 89.8488C50.9001 88.7172 49.9796 87.7988 48.8501 87.7988C47.7205 87.7988 46.8001 88.7172 46.8001 89.8488C46.8001 90.9804 47.7205 91.8988 48.8501 91.8988Z" fill="#00B2FF"/>
<path d="M57.0498 55.3765V48.8494C57.0498 48.3041 57.2651 47.7834 57.6505 47.4001L82.2669 22.7841C81.8815 21.9826 81.6498 21.097 81.6498 20.1499C81.6498 16.7593 84.4092 14 87.7999 14C90.469 14 92.724 15.7199 93.5727 18.0999H102.15C103.281 18.0999 104.2 19.0163 104.2 20.1499V25.4511L111.816 33.0667C112.617 32.6813 113.503 32.4497 114.45 32.4497C117.841 32.4497 120.6 35.2089 120.6 38.5996C120.6 41.9902 117.841 44.7495 114.45 44.7495C111.059 44.7495 108.3 41.9902 108.3 38.5996C108.3 37.6525 108.532 36.7669 108.917 35.9654L100.701 27.7491C100.315 27.3658 100.1 26.8451 100.1 26.2998V22.1999H93.5727C92.724 24.5799 90.469 26.2998 87.7999 26.2998C86.8528 26.2998 85.9672 26.0681 85.1656 25.6828L61.1498 49.6981V55.3765C63.5299 56.2252 65.2498 58.4802 65.2498 61.1492C65.2498 64.5399 62.4905 67.2991 59.0998 67.2991C55.7091 67.2991 52.9498 64.5399 52.9498 61.1492C52.9498 58.4802 54.6698 56.2252 57.0498 55.3765ZM114.45 40.6496C115.579 40.6496 116.5 39.7312 116.5 38.5996C116.5 37.468 115.579 36.5496 114.45 36.5496C113.32 36.5496 112.4 37.468 112.4 38.5996C112.4 39.7312 113.32 40.6496 114.45 40.6496ZM87.7999 22.1999C88.9294 22.1999 89.8499 21.2815 89.8499 20.1499C89.8499 19.0183 88.9294 18.0999 87.7999 18.0999C86.6703 18.0999 85.7499 19.0183 85.7499 20.1499C85.7499 21.2815 86.6703 22.1999 87.7999 22.1999ZM59.0998 63.1992C60.2294 63.1992 61.1498 62.2808 61.1498 61.1492C61.1498 60.0176 60.2294 59.0992 59.0998 59.0992C57.9703 59.0992 57.0498 60.0176 57.0498 61.1492C57.0498 62.2808 57.9703 63.1992 59.0998 63.1992Z" fill="#00B2FF"/>
<path d="M63.2 71.399C65.8691 71.399 68.1241 73.119 68.9728 75.499H93.1013L104.801 63.7998C105.184 63.4144 105.707 63.1992 106.25 63.1992H127.951L132.9 58.2506V41.4982L117.084 25.6828C116.283 26.0681 115.397 26.2998 114.45 26.2998C111.059 26.2998 108.3 23.5405 108.3 20.1499C108.3 16.7593 111.059 14 114.45 14C117.841 14 120.6 16.7593 120.6 20.1499C120.6 21.097 120.368 21.9826 119.983 22.7841L136.399 39.2002C136.785 39.5836 137 40.1043 137 40.6496V59.0992C137 59.6445 136.785 60.1652 136.399 60.5486L130.249 66.6985C129.866 67.0839 129.343 67.2991 128.8 67.2991H107.099L95.3993 78.9983C95.016 79.3837 94.4932 79.5989 93.95 79.5989H68.9728C68.1241 81.9789 65.8691 83.6988 63.2 83.6988C59.8093 83.6988 57.05 80.9396 57.05 77.5489C57.05 74.1583 59.8093 71.399 63.2 71.399ZM114.45 18.0999C113.32 18.0999 112.4 19.0183 112.4 20.1499C112.4 21.2815 113.32 22.1999 114.45 22.1999C115.58 22.1999 116.5 21.2815 116.5 20.1499C116.5 19.0183 115.58 18.0999 114.45 18.0999ZM63.2 79.5989C64.3295 79.5989 65.25 78.6805 65.25 77.5489C65.25 76.4174 64.3295 75.499 63.2 75.499C62.0704 75.499 61.15 76.4174 61.15 77.5489C61.15 78.6805 62.0704 79.5989 63.2 79.5989Z" fill="#00B2FF"/>
<path d="M20.1501 63.1992C21.0972 63.1992 21.9828 63.4308 22.7843 63.8162L30.4001 56.2006V44.3723C28.02 43.5236 26.3001 41.2687 26.3001 38.5996C26.3001 35.209 29.0594 32.4497 32.4501 32.4497C35.8408 32.4497 38.6001 35.209 38.6001 38.5996C38.6001 41.2687 36.8801 43.5236 34.5001 44.3723V57.0493C34.5001 57.5946 34.2848 58.1153 33.8994 58.4986L25.683 66.7149C26.0684 67.5164 26.3001 68.402 26.3001 69.3491C26.3001 72.0181 24.5801 74.2731 22.2001 75.1218V76.7003L37.9994 92.4994C38.3848 92.8827 38.6001 93.4034 38.6001 93.9487V96.3758C40.9801 97.2245 42.7001 99.4795 42.7001 102.149C42.7001 104.818 40.9801 107.073 38.6001 107.921V112.778C40.9801 113.626 42.7001 115.881 42.7001 118.55C42.7001 121.941 39.9408 124.7 36.5501 124.7C33.1594 124.7 30.4001 121.941 30.4001 118.55C30.4001 115.881 32.12 113.626 34.5001 112.778V107.921C32.12 107.073 30.4001 104.818 30.4001 102.149C30.4001 99.4795 32.12 97.2245 34.5001 96.3758V94.7974L18.7007 78.9983C18.3153 78.6149 18.1001 78.0942 18.1001 77.549V75.1218C15.72 74.2731 14.0001 72.0181 14.0001 69.3491C14.0001 65.9584 16.7594 63.1992 20.1501 63.1992ZM32.4501 40.6496C33.5796 40.6496 34.5001 39.7312 34.5001 38.5996C34.5001 37.468 33.5796 36.5496 32.4501 36.5496C31.3205 36.5496 30.4001 37.468 30.4001 38.5996C30.4001 39.7312 31.3205 40.6496 32.4501 40.6496ZM36.5501 120.598C37.6796 120.598 38.6001 119.68 38.6001 118.548C38.6001 117.417 37.6796 116.498 36.5501 116.498C35.4205 116.498 34.5001 117.417 34.5001 118.548C34.5001 119.68 35.4205 120.598 36.5501 120.598ZM36.5501 104.199C37.6796 104.199 38.6001 103.28 38.6001 102.149C38.6001 101.017 37.6796 100.099 36.5501 100.099C35.4205 100.099 34.5001 101.017 34.5001 102.149C34.5001 103.28 35.4205 104.199 36.5501 104.199ZM20.1501 71.3991C21.2796 71.3991 22.2001 70.4807 22.2001 69.3491C22.2001 68.2175 21.2796 67.2991 20.1501 67.2991C19.0205 67.2991 18.1001 68.2175 18.1001 69.3491C18.1001 70.4807 19.0205 71.3991 20.1501 71.3991Z" fill="#00B2FF"/>
</svg>
